<?xml version="1.0" encoding="UTF-8"?>
<svg id="_Ñëîé_2" data-name="Ñëîé 2" xmlns="http://www.w3.org/2000/svg" viewBox="0 0 2140.95 1090.72">
  <g id="CaMap">
    <path d="M1827.23,538.68c.39-4.89-1.49-10.29-4.9-14.1-3.98-4.43-9.18-7.08-14.21-9.64-1.51-.77-3.02-1.53-4.48-2.35-18.98-10.53-31.51-29.65-43.63-48.13-3.77-5.76-7.68-11.71-11.72-17.33-48.42-67.27-136.38-108.76-241.33-113.84-42.23-2.04-84.54,1.41-126.46,7.2-4.22-10.95-10.97-20.88-16.88-28.72-44.13-58.53-106.37-104.57-175.25-129.65-19.17-6.98-47.44-15.01-71.48-4.22-7,3.14-11.85,7.31-14.41,12.38-2.23,4.42-2.91,9.8-2.08,16.46,2.64,21.31,16.7,37.93,30.3,54,9.63,11.38,19.59,23.15,25.38,36.46,11.84,27.18,4.5,54.1-5.14,81.55-14.35,2.11-28.64,4.17-42.77,6.2-61.65,8.86-125.4,18.02-187.46,30.88-98.03,20.31-178.56,47.64-246.17,83.54-10.93,5.8-21.69,12.18-32.1,18.34-14.53,8.6-29.56,17.5-45.1,24.87-.66.31-4.84,2.31-10.83,5.54-5.51-2.24-10.74-4.55-15.48-7.6-16.97-10.89-29.81-27.2-42.55-44.36-5.39-7.26-10.82-14.71-16.07-21.91-23.31-31.98-47.41-65.05-76.31-93.08-28.45-27.6-74.13-61.6-130.16-66.82-1.34-.13-2.59.7-3,1.98-.41,1.28.12,2.68,1.27,3.36,23.71,13.98,40.13,41.48,48.82,81.71,2.26,10.45,4.01,21.26,5.72,31.72,3.62,22.26,7.36,45.28,16.16,66.56,11.68,28.25,37.25,56.67,69.41,60.3l-59.47,52.08c-10.68,9.36-21.73,19.03-34.77,24.86-26.68,11.94-58.58,6.32-84.21,1.8-1.06-.19-2.14.24-2.79,1.1-.65.86-.76,2.01-.29,2.98,25.7,53.08,85.63,75.25,137.37,75.25,6.69,0,13.24-.37,19.56-1.09,62.03-7.08,118.25-41.62,165.06-74.47,2.14-1.5,4.64-3.26,7.33-5.22,67.8,22.33,174.23,46.64,215.7,53.33h0c141.92,22.92,286.47,38.93,430.19,47.69-8.33,62.01.5,133.43,18.79,175.74,3.49,8.08,15.89,32.95,35.88,32.95,1.44,0,2.91-.13,4.42-.4,9-1.62,15.78-7.97,21.94-14.33,50.92-52.56,89.01-117.37,110.15-187.43.16-.53.32-1.07.48-1.61,107.85-2.98,214.64-19.06,310.84-65.79,24.56-11.93,54.54-29.33,68.51-58.21,9.81-20.29,10.44-44.77,2.85-68.03,3.86-.15,7.67-.84,10.79-3.36,2.71-2.19,4.3-5.35,4.6-9.14ZM1243.64,738.64c9.78.58,19.55,1.13,29.31,1.65,38.56,2.04,77.6,3.47,116.64,3.47,11.34,0,22.68-.12,34.01-.38-20.89,69.1-58.47,133.02-108.7,184.87-5.51,5.69-11.51,11.36-18.83,12.68-18.45,3.31-30.69-21.49-34.01-29.17-14.54-33.64-22.87-87.9-21.23-138.25.4-12.21,1.35-23.85,2.81-34.86ZM571.5,624.03c91.23-13.83,183.84-14.49,275.26-1.97,5.65.77,11.3,1.6,16.95,2.42,27.94,4.07,56.84,8.29,85.51,6.21,6.73-.49,13.65-1.57,18.71-6.12,10.9-9.82,4.86-23.2-.99-36.14-4.21-9.31-8.56-18.94-7.14-27.55.86-5.24,3.72-9.56,8.49-12.83,3.21-2.2,7.29-3.86,11.82-4.92,4.1-.44,8.2-.9,12.3-1.36,3.76,0,7.58.37,11.27,1.14,39.72,8.26,71.41,36.49,102.06,63.79,12.57,11.2,25.56,22.78,39.01,32.91,37.4,28.19,82.83,49.16,147.32,67.97,22.74,6.63,46.26,12.21,69.14,12.21,14.58,0,28.91-2.26,42.62-7.96,31.66-13.16,52.12-41.56,71.91-69.04,11.95-16.59,24.31-33.75,39.04-47.47,40.72-37.94,98.64-48.18,140.06-50.09,30.46-1.4,61.49.72,91.51,2.78,19.44,1.33,39.5,2.7,59.34,3.11,7.3,20.74,8.45,44.23-1.86,65.56-13.21,27.3-42.13,44.02-65.85,55.55-141.71,68.84-307.1,70.62-464.72,62.3-155.01-8.19-311.3-24.88-464.54-49.63-51.93-8.39-176.7-38.46-237.22-60.9ZM580.11,551.67c-20.43,11.64-51.58,32.53-51.14,51.43.2,8.42,6.43,15.25,18.52,20.31,3.88,1.62,7.96,2.06,12,1.96,7.48,3.12,16.21,6.35,25.9,9.65-1.4,1-2.72,1.92-3.92,2.76-46.22,32.44-101.67,66.53-162.41,73.46-6.14.7-12.51,1.06-19,1.06-48.17,0-103.6-19.78-129.49-66.93,25.33,4.38,55.57,8.55,81.85-3.22,13.82-6.19,25.2-16.15,36.2-25.79l64.78-56.73c.9-.79,1.22-2.06.79-3.18-.42-1.12-1.49-1.86-2.69-1.86-.09,0-.19,0-.29,0-32.73,0-59.24-28.66-71.01-57.14-8.54-20.66-12.23-43.35-15.8-65.28-1.71-10.53-3.48-21.41-5.77-32.01-7.81-36.15-21.79-62.52-41.65-78.59,49.1,8.3,89.31,38.69,115.1,63.71,28.55,27.69,52.5,60.56,75.67,92.34,5.26,7.21,10.69,14.67,16.1,21.95,13.06,17.6,26.27,34.35,44.06,45.77,3.84,2.46,7.98,4.48,12.19,6.31ZM1374.64,341.32c-30.96,4.44-61.69,10.07-92,15.63-15.52,2.84-31.56,5.79-47.32,8.51-25.83,4.46-52,8.51-77.99,12.36,9.53-27.59,16.24-54.79,4-82.9-6.13-14.09-16.37-26.18-26.26-37.88-13.66-16.14-26.55-31.39-28.98-51-.68-5.49-.19-9.8,1.51-13.17,1.95-3.86,5.86-7.13,11.63-9.72,7.64-3.43,15.84-4.76,24.04-4.76,15.57,0,31.18,4.79,43.12,9.14,67.85,24.7,129.16,70.05,172.63,127.71,5.43,7.19,11.6,16.23,15.61,26.09ZM1821.51,538.22c-.12,1.52-.65,3.65-2.49,5.13-2.55,2.07-6.43,2.18-10.53,2.11-20.57-.34-41.51-1.78-61.75-3.16-23.38-1.6-47.38-3.25-71.32-3.25-6.96,0-13.92.14-20.85.46-60.78,2.8-110.47,20.65-143.71,51.62-15.14,14.11-27.67,31.5-39.78,48.31-20.21,28.06-39.3,54.55-69.45,67.09-33.59,13.96-71.74,6.11-107.95-4.46-63.79-18.61-108.65-39.29-145.47-67.05-13.26-10-26.17-21.5-38.65-32.62-31.21-27.8-63.48-56.56-104.71-65.13-14.47-3.01-30.1-.64-39.81,6.03-6.03,4.13-9.8,9.89-10.91,16.64-1.7,10.32,3.02,20.76,7.58,30.85,6.32,13.99,9.64,22.96,2.38,29.5-3.77,3.4-9.57,4.25-15.28,4.66-28.05,2.03-56.63-2.14-84.26-6.17-5.67-.83-11.34-1.65-17-2.43-92.31-12.65-185.82-11.93-277.93,2.13-6.83,1.04-13.9,2.12-19.9-.38-9.81-4.1-14.86-9.19-15-15.14-.46-19.65,48.05-47.12,65.08-55.19,15.78-7.48,30.92-16.45,45.56-25.12,10.35-6.13,21.06-12.47,31.86-18.21,67.13-35.64,147.15-62.79,244.65-82.99,61.88-12.82,125.55-21.97,187.11-30.82,41.79-6.01,85.01-12.22,127.33-19.53,15.79-2.73,31.85-5.67,47.37-8.52,72.88-13.36,148.25-27.18,223-23.57,103.19,4.99,189.55,45.62,236.94,111.46,3.97,5.52,7.84,11.42,11.58,17.13,12.5,19.07,25.42,38.79,45.65,50.01,1.53.85,3.1,1.65,4.67,2.44,4.77,2.43,9.28,4.72,12.54,8.35,2.36,2.63,3.71,6.48,3.45,9.8Z"/>
    <path d="M1642.49,486.83c8.69-8.92,18.47-22.74,15.73-37.9-1.46-8.07-6.37-15.75-15-23.47-21.73-19.45-48.78-25.93-67.65-27.94-35.96-3.83-109.62,6.11-128.38,39.57-8.56,15.26-5.03,33.23,10.47,53.41,16.11,20.96,42.48,33.53,74.26,35.4,2.77.16,5.55.24,8.34.24,38.61,0,78.83-15.27,102.24-39.31ZM1638.37,482.83c-24,24.65-66.65,39.65-106.12,37.34-30.09-1.76-54.96-13.54-70.04-33.16-13.97-18.19-17.34-34.04-10.02-47.1,15-26.75,71.07-37.39,107.63-37.39,5.57,0,10.68.25,15.13.72,18.03,1.92,43.84,8.08,64.43,26.51,7.65,6.84,11.96,13.45,13.18,20.22,2.31,12.75-6.44,24.91-14.19,32.87Z"/>
    <path d="M1591.13,473.41c2.96-9.33,2.75-19.38-.59-28.32-3.9-11.58-13.28-20.76-25.7-25.12-12.42-4.36-25.49-3.04-35.84,3.62-17.29,10.07-25.37,32.69-18.34,51.52.02.06.04.13.06.19,1.55,4.16,3.62,7.96,6.16,11.29.03.05.07.1.1.15,7.81,10.4,20.74,16.49,33.67,16.5,3.32,0,6.63-.4,9.86-1.23.06-.01.12-.03.18-.05,4.07-1.01,8.06-2.68,11.86-4.97.07-.04.13-.08.19-.13,8.55-5.26,15.25-13.79,18.38-23.43,0,0,0-.01,0-.02ZM1585.66,471.66c-2.74,8.42-8.6,15.85-16.08,20.4-.05.03-.1.07-.15.1-3.32,1.97-6.79,3.41-10.31,4.26-.08.02-.16.04-.23.07-13.52,3.39-28.75-1.95-37.18-13.04-.04-.07-.09-.13-.14-.19-2.21-2.87-4.03-6.16-5.39-9.77-.02-.07-.04-.14-.07-.21-6.19-16.32.79-35.99,15.89-44.78,8.96-5.76,20.2-6.86,30.94-3.1,10.74,3.77,18.82,11.65,22.18,21.62,2.93,7.82,3.1,16.54.53,24.64Z"/>
    <path d="M1601.46,592.09c1.37-.77,3.18-3.39,3.95-.74.52.75.97,1.52,1.59,2.31l1.11,1.34c.81.84,1.56,1.71,2.46,2.46,3.43,3.12,7.52,5.48,11.86,7.25,4.33,1.79,8.94,2.96,13.59,3.85,9.32,1.78,18.94,2.29,28.57,2.09,9.66-.18,19.29-1.14,29.19-2.62-4.56,1.94-9.31,3.46-14.14,4.63-4.83,1.21-9.76,2.05-14.73,2.56-9.94.99-20.07.98-30.12-.79-5.01-.93-10-2.31-14.73-4.52-4.72-2.18-9.24-5.1-12.92-9.02-.95-.94-1.75-2.04-2.57-3.09l-1.12-1.67s-.05-.2-.08-.32c-.05-.44-.29-.24-.59-.16-.12.05-.06,0-.33.14l-.82.46-1.64.9c-4.42,2.33-8.96,4.43-13.7,6.01,4.08-2.83,8.08-5.7,12-8.65,1.07-.81,2.14-1.62,3.2-2.42Z"/>
    <path d="M1468.55,394.15c-3.44.69-6.99.64-10.44,1.29-1.91.36-3.77.94-5.54,1.71-1.13.49-2.23,1.06-3.28,1.71-2.7,1.65-5,5.38-7.82,6.48-7.69,3-8.57-6.12-6.14-10.95,4.08-8.11,11.29-14.59,19.78-17.78,6.87-2.58,29.74-.59,22.16,12.22-1.79,3.02-5.28,4.63-8.72,5.32Z"/>
    <path d="M1527,452.29c11.74-32.99,60.71-15.81,49.27,17.28-11.74,32.99-60.71,15.81-49.27-17.28Z"/>
  </g>
</svg>