<?xml version="1.0" encoding="UTF-8"?>
<svg id="_Ñëîé_2" data-name="Ñëîé 2" xmlns="http://www.w3.org/2000/svg" viewBox="0 0 2140.95 1090.72">
  <path d="M1289.17,356c-7.84-3-16.24-.83-21.89,1.07-15.06,5.05-28.43,13.78-41.35,22.21-5.22,3.41-10.62,6.93-16.02,10.13-13.64,8.09-32.31,16.89-53.33,20.65,3.15-14.45,1.91-30.65-4.09-45.85-.65-1.64-1.35-3.29-2.05-4.94-3.11-7.33-6.04-14.25-4.84-21.06.55-3.08,1.96-6.07,3.45-9.24,1.37-2.9,2.78-5.9,3.64-9.21,2.86-10.94-.87-21.92-4.48-32.53-3.84-11.3-7.47-21.98-2.14-30.61,1.74-2.82,4.37-5.17,7.14-7.65,2.41-2.15,4.9-4.38,7.01-7.1,7.61-9.79,7.85-22.08,8.08-33.98.07-3.69.14-7.18.42-10.6,2.48-30.5,22.17-54.41,43.02-79.73,11.14-13.52,22.65-27.51,31.37-42.64,0,0,0,0,0-.01,1.08-1.87.43-4.26-1.43-5.33-1.61-.92-3.61-.58-4.82.74-2.73,1.43-15.76,3.65-22.84,4.86-7.34,1.25-11.96,2.06-14.12,2.79-8.29,2.8-16.74,6.29-25.22,10.41-49.23,12.75-98.95,26.67-146.92,44.34-85.66,31.57-162.95,74.64-229.73,128.02-72.07,57.61-128.41,124.7-167.47,199.41-6.92,13.24-14.53,29.04-18.47,45.81-.75,3.22-3.06,13.02,3.04,19.11.88.88,1.86,1.56,2.87,2.13.41,2.96.98,5.98,1.74,9.09,10.21,41.85,37.92,80.2,63.1,112.87,15.89,20.62,32.93,40.31,50.92,59.09-7.31,28.33-6.65,58.73-3.33,84.71,2.69,61.08,34.92,116.63,58.95,153.11.74,1.12,1.98,1.76,3.26,1.76.49,0,.99-.09,1.47-.29,1.73-.7,2.72-2.52,2.36-4.35-6.46-33.58,2.13-69.94,12.94-108.31,22.35,51.22,63.84,88.59,101.91,118.56.71.56,1.56.84,2.42.84.91,0,1.82-.32,2.55-.95,1.41-1.22,1.76-3.27.84-4.89-17.19-30.04-19.94-70.01-22.12-112.6,75.13,44.37,157.84,75.87,243.67,91.81,21.35,10.74,45.28,18.42,71.43,20.18.09,0,.18,0,.26,0,1.55,0,2.96-.92,3.58-2.36.66-1.52.28-3.28-.93-4.41-12.53-11.63-24.54-23.77-36.02-36.38l-25.47-94.86c-1.07-4-2.18-8.14-1.52-11.89.38-2.18,1.38-4.37,2.44-6.68.96-2.09,1.94-4.24,2.6-6.63,3.3-12-2.94-22.65-8.97-32.94-5.14-8.78-10-17.07-8.9-25.65.74-5.73,4.12-10.88,7.7-16.32,3.55-5.4,7.22-10.98,8.64-17.65,2.01-9.48-.97-18.48-3.86-27.18-1.17-3.53-2.28-6.87-3.07-10.23-4-16.97.87-34.17,5.54-47.26,1.53-4.27,4.12-9.16,6.86-14.35,3.88-7.34,8.11-15.36,10.05-23.18.38-.06.74-.14,1.12-.19,22.05-2.89,44.58,5.07,64.46,12.1l39.52,13.96c4.05,1.43,7.51,3.05,10.85,4.62,10.21,4.8,19.04,8.93,31.62-.64,6.47-4.92,9.13-12.58,11.3-20.01,24.56-84.1,15.49-161.4-24.88-212.09-3.73-4.69-8-9.33-13.89-11.59ZM1205.72,112.59c-20.7,25.13-42.1,51.12-44.77,84.06-.3,3.66-.37,7.43-.44,11.08-.22,11.11-.42,21.6-6.44,29.34-1.68,2.16-3.8,4.06-6.05,6.07-3.07,2.75-6.24,5.58-8.58,9.37-7.26,11.77-2.86,24.71,1.39,37.23,3.39,9.97,6.59,19.38,4.32,28.05-.68,2.61-1.88,5.15-3.15,7.85-1.65,3.49-3.35,7.1-4.08,11.21-1.61,9.1,1.92,17.42,5.34,25.47.68,1.6,1.35,3.18,1.97,4.76,5.84,14.79,6.73,30.54,3.06,44.15-7.35.8-14.92.96-22.63.18-30.99-3.1-57.84-21.38-68.4-46.55-9.38-22.34-7.27-49.64,6.65-85.91,35.45-92.41,87.18-154.66,162.8-195.88,1.03-.56,1.71-1.54,1.94-2.62.73-.14,1.44-.29,2.1-.43-7.49,11.27-16.37,22.05-25.02,32.56ZM786.71,927.37c-21.83-35.15-46.23-83.19-48.46-134.93,0-.11-.01-.22-.03-.33-3.05-23.7-3.82-51.23,2.01-77.16,13.78,14.03,28.15,27.47,43,40.36,3.23,24.41,11.73,48.05,21.29,68.29-10.37,36.25-19.72,70.87-17.81,103.77ZM902.86,936.57c-35.15-28.98-70.91-64.77-89.31-112.17-.04-.1-.08-.2-.13-.3-20.46-41.81-37.47-100.12-7.64-147.3,1.79,11.01,7.58,19.06,16.51,22.38,9.44,3.52,20.01.6,25.69-7.09,1.68-2.27,4.06-6.62,4.04-12.94,29.46,42.49,32.21,97.36,34.9,150.67,1.96,38.98,3.83,76.13,15.95,106.75ZM894.56,826.47c-3.13-62.12-7.02-125.99-52.74-171.65-1.45-1.45-3.79-1.53-5.33-.17-1.55,1.36-1.77,3.68-.52,5.31,8.43,10.98,10.52,21.01,5.73,27.49-3.56,4.83-10.58,6.69-16.69,4.41-8.58-3.19-12.9-12.81-11.87-26.38.13-1.71-.87-3.31-2.47-3.93-1.6-.62-3.42-.14-4.48,1.21-19.83,24.98-25.76,53.35-24.06,81.26-34.02-30.22-65.27-63.56-93.08-99.64-24.69-32.03-51.85-69.58-61.7-109.95-.4-1.64-.73-3.24-1.02-4.82.92.1,1.79.17,2.53.23,13.13.99,26.57,1.62,39.57,2.24,44.38,2.09,90.26,4.26,131.49,20.84,50.25,20.2,95.76,62.7,139.14,129.93,12.5,19.37,24.35,39.69,35.81,59.34,20.98,35.98,42.68,73.18,69.31,106.24,15.51,19.25,40.44,45.94,72.96,66.88-78.4-17.23-153.78-47.54-222.6-88.82ZM1152.13,589.37c-2.88,5.44-5.59,10.58-7.3,15.37-5.04,14.1-10.26,32.72-5.8,51.68.87,3.7,2.09,7.37,3.26,10.91,2.68,8.07,5.21,15.69,3.64,23.1-1.11,5.24-4.23,9.97-7.53,14.99-3.91,5.95-7.96,12.09-8.92,19.62-1.44,11.22,4.33,21.07,9.91,30.59,5.45,9.3,10.6,18.09,8.17,26.92-.49,1.78-1.31,3.56-2.17,5.45-1.22,2.66-2.49,5.42-3.04,8.59-.95,5.46.51,10.89,1.68,15.26l21.39,79.69c-21.41-24.92-40.81-51.55-57.96-79.66-14.43-23.65-29.5-51.99-31.76-82.81-1.67-22.67,3.8-44.92,8.75-61.77,7.43-25.31,29.18-82.72,75.97-95.64-2.01,5.85-5.26,12.02-8.28,17.74ZM1320.45,577.49c-1.8,6.18-3.95,12.5-8.53,15.98-8.82,6.71-13.75,4.4-23.57-.22-3.35-1.57-7.15-3.35-11.57-4.91l-39.52-13.96c-20.7-7.32-44.18-15.6-68.08-12.48-58.15,7.61-83.88,74.68-92.24,103.16-5.13,17.49-10.8,40.62-9.04,64.55,2.38,32.48,17.96,61.86,32.88,86.31,27.48,45.04,60.62,86.35,98.59,122.94-70.38-9.67-123.2-63.2-149.1-95.34-26.26-32.6-47.81-69.54-68.65-105.27-11.51-19.73-23.4-40.12-36-59.64-44.29-68.63-90.99-112.11-142.79-132.94-42.46-17.07-89.01-19.27-134.04-21.39-12.94-.61-26.33-1.24-39.35-2.22-3.42-.26-6.92-.66-8.78-2.52-2.03-2.03-2.35-5.89-.96-11.8,3.74-15.93,11.09-31.17,17.79-43.97,74.71-142.91,214.27-257.87,392.97-323.72,55.12-20.31,112.74-35.68,169.25-50.02-64.86,41.85-110.7,101.66-143.11,186.15-14.68,38.27-16.76,67.41-6.55,91.73,11.66,27.78,41.03,47.91,74.82,51.3,35.41,3.54,67.97-10.58,89.02-23.06,5.54-3.28,11.01-6.86,16.3-10.31,12.52-8.17,25.46-16.62,39.57-21.35,7.16-2.4,12.44-2.78,16.61-1.18,4.15,1.59,7.53,5.34,10.58,9.16,38.77,48.67,47.33,123.4,23.5,205.03Z"/>
  <path d="M781.41,381.53c-19.63-3.3-38.75,2-52.49,14.53-.02.01-.03.02-.04.04-10.98,9.43-18.62,22.64-21.51,37.2,0,0,0,.02,0,.03-2.9,15.12-.24,31.36,7.28,44.61.05.1.1.19.15.28,3.39,5.83,7.47,10.97,12.14,15.29.06.06.12.13.19.19,11.69,11.01,27.72,16.89,43.7,16.89,8.67,0,17.34-1.73,25.28-5.31.08-.04.16-.07.24-.12,5.83-2.57,11.37-6.1,16.47-10.5.07-.06.14-.13.21-.19,23.13-19.87,28.97-55.85,13.35-81.91-8.88-16.42-25.27-27.73-44.96-31.04ZM807.73,488.72c-.08.07-.16.14-.23.21-4.53,3.87-9.43,6.96-14.56,9.19-.11.05-.21.1-.31.15-19.65,8.71-44.21,4.59-59.94-10.06-.08-.09-.16-.17-.25-.25-4.12-3.78-7.74-8.3-10.76-13.45-.04-.08-.08-.15-.12-.23-6.72-11.7-9.1-26.09-6.53-39.49,2.54-12.79,9.21-24.38,18.8-32.67.08-.06.16-.13.23-.2,11.96-10.98,28.74-15.62,46.06-12.71,17.3,2.9,31.66,12.76,39.47,27.19,13.85,23.11,8.64,54.87-11.86,72.3Z"/>
  <path d="M838.82,330.37c-9.03-6.66-43.47-13.28-37.68,8.72,1.37,5.19,5.83,9.01,10.6,11.46,4.77,2.45,10.01,3.87,14.81,6.26,2.65,1.32,5.14,2.95,7.43,4.83,1.46,1.2,2.83,2.49,4.11,3.88,3.28,3.56,5.1,9.99,8.79,12.79,10.06,7.62,15.15-5.42,13.6-13.53-2.61-13.62-10.5-26.16-21.66-34.4Z"/>
  <path d="M730.16,437.76c-8.61,52.82,69.6,65.94,78.7,13.21,8.61-52.81-69.6-65.94-78.7-13.21Z"/>
</svg>